# xmcd
#
# Track frame offsets: 
#        180
#        13372
#        30853
#        48454
#        63255
#        82672
#        100187
#        120101
#        140570
#        156880
#        172380
#        187457
#        199537
#        217229
#        239239
#        254434
#        267744
#
# Disc length: 3809 seconds
#
# Revision: 0
# Processed by: cddbd v1.5.1PL0 Copyright (c) Steve Scherf et al.
# Submitted via: ExactAudioCopy v0.95a5
#
DISCID=010edf11
DTITLE=Buffalo Wayne - Live in Europe
DYEAR=1999
DGENRE=country
TTITLE0=I'm a ramblin' man
TTITLE1=Pass it on
TTITLE2=The union mare of the Confederate Grey
TTITLE3=Ladies love outlaws
TTITLE4=Don't it make you
TTITLE5=The european Texaa
TTITLE6=Willie, Waylon and me
TTITLE7=Louisiana rendevous
TTITLE8=T for Texas
TTITLE9=Conrete and Steel
TTITLE10=Two more bottles of wine
TTITLE11=Shine
TTITLE12=Evangelina
TTITLE13=Orange Blossom
TTITLE14=Cherokee Fidle
TTITLE15=Honky Tonk Women
TTITLE16=Tulsa Time
EXTD=
EXTT0=
EXTT1=
EXTT2=
EXTT3=
EXTT4=
EXTT5=
EXTT6=
EXTT7=
EXTT8=
EXTT9=
EXTT10=
EXTT11=
EXTT12=
EXTT13=
EXTT14=
EXTT15=
EXTT16=
PLAYORDER=
